<svg preserveAspectRatio="none" width="100%" height="100%" overflow="visible" style="display: block;" viewBox="0 0 648 72" fill="none" xmlns="http://www.w3.org/2000/svg">
<g id="Frame 770">
<path id="Vector 2464" d="M8 8C19.4107 8.26603 29.9655 8.58375 41.0292 8.96563C136.525 16.1895 252.654 7.70605 322.763 64.2102C322.765 64.214 322.758 64.2134 322.756 64L330.745 63.7055C397.43 7.74092 513.331 16.1323 606.966 8.9772C618.046 8.59085 628.581 8.26959 640 8C628.581 7.73274 618.04 7.54416 606.946 7.44785C557.681 7.07286 508.916 8.21243 459.924 13.2161C435.695 15.7558 410.906 19.2939 386.999 25.1912C375.058 28.1762 362.989 31.8053 351.531 36.9299C340.614 42.8484 326.904 46.4299 322.767 64.2945L330.756 64C330.756 63.8995 330.752 63.7573 330.738 63.5758C330.729 63.4596 330.727 63.4466 330.723 63.4086C330.72 63.374 330.716 63.3382 330.712 63.3014C248.562 -7.5684 138.107 12.5284 41.0489 7.45513C29.9719 7.55034 19.4107 7.73617 8 8Z" fill="var(--stroke-0, white)"/>
</g>
</svg>
